<?xml version="1.0" standalone="no"?>
<!DOCTYPE svg PUBLIC "-//W3C//DTD SVG 20010904//EN"
 "http://www.w3.org/TR/2001/REC-SVG-20010904/DTD/svg10.dtd">
<svg version="1.0" xmlns="http://www.w3.org/2000/svg"
 width="640.000000pt" height="640.000000pt" viewBox="0 0 640.000000 640.000000"
 preserveAspectRatio="xMidYMid meet">

<g transform="translate(0.000000,640.000000) scale(0.100000,-0.100000)"
fill="#192a56" stroke="none">
<path d="M3180 5929 c-241 -200 -638 -590 -1200 -1179 -102 -107 -228 -239
-281 -295 -53 -55 -127 -133 -165 -174 -38 -41 -80 -86 -94 -101 -14 -15 -49
-53 -79 -86 -63 -67 -194 -207 -289 -307 -36 -37 -62 -70 -59 -74 10 -10 239
35 417 82 566 150 868 188 1485 187 504 0 750 -24 1145 -112 112 -25 123 -28
305 -69 198 -45 346 -73 353 -66 8 7 -19 27 -123 89 -515 307 -1523 616 -2009
616 -29 0 -56 3 -59 7 -17 16 34 78 243 296 315 328 515 517 549 517 33 0 312
-187 848 -570 42 -30 120 -85 172 -123 53 -37 122 -86 155 -110 32 -23 82 -58
110 -77 28 -19 98 -69 155 -110 291 -209 706 -490 723 -490 7 0 -12 24 -42 54
-51 49 -292 302 -436 456 -84 91 -175 215 -213 292 -55 115 -61 165 -54 505
l6 303 -250 0 c-220 0 -252 -2 -257 -16 -3 -9 -6 -71 -6 -139 0 -68 -4 -126
-8 -129 -5 -3 -97 84 -204 192 -449 452 -712 702 -738 702 -8 -1 -53 -33 -100
-71z"/>
<path d="M997 3664 c-12 -12 -8 -1943 4 -2031 18 -136 76 -233 171 -290 83
-50 150 -63 331 -63 l158 0 -3 73 -3 72 -165 6 c-91 3 -174 9 -185 14 -43 18
-92 65 -115 112 l-25 48 -5 1030 -5 1030 -75 3 c-42 1 -79 0 -83 -4z"/>
<path d="M1833 3500 c-171 -15 -296 -70 -393 -176 -100 -108 -141 -217 -141
-374 0 -171 46 -295 150 -398 119 -118 228 -162 412 -165 l114 -2 0 55 0 55
-40 3 c-97 7 -219 32 -270 56 -71 32 -159 120 -191 189 -86 189 -37 426 111
538 88 67 182 96 320 102 l60 2 0 60 c0 70 8 67 -132 55z"/>
<path d="M3635 3071 c-71 -24 -119 -55 -157 -104 -45 -56 -65 -105 -85 -203
-13 -70 -14 -97 -5 -164 6 -44 21 -103 33 -130 66 -154 244 -172 341 -35 34
49 43 50 53 5 14 -63 90 -109 153 -93 33 8 42 19 42 58 0 22 -9 37 -32 57
l-33 27 -5 280 c-3 167 -9 284 -15 289 -36 33 -210 41 -290 13z m145 -116 c18
-22 8 -305 -14 -363 -35 -96 -99 -146 -153 -120 -54 26 -68 69 -68 208 0 119
1 128 30 185 24 47 39 64 74 82 51 26 113 30 131 8z"/>
<path d="M4245 3074 c-82 -30 -125 -95 -125 -188 0 -44 6 -62 33 -102 17 -26
53 -61 79 -78 26 -17 69 -45 95 -62 65 -42 88 -83 74 -127 -7 -20 -22 -39 -37
-46 -38 -17 -115 -13 -186 9 -34 11 -64 20 -65 20 -2 0 -3 -25 -3 -56 0 -54 1
-55 38 -71 63 -27 169 -38 234 -24 109 23 160 77 166 175 8 117 -31 175 -170
258 -110 65 -144 122 -99 167 30 30 80 35 166 17 42 -9 79 -16 81 -16 2 0 4
25 4 55 l0 54 -52 16 c-64 19 -180 18 -233 -1z"/>
<path d="M2324 3062 c-93 -33 -176 -117 -210 -214 -8 -24 -18 -79 -23 -123
-23 -229 61 -385 206 -385 70 0 125 29 165 85 18 25 35 45 40 45 4 0 12 -18
18 -39 15 -57 59 -91 119 -91 57 0 71 12 71 62 0 32 -4 40 -24 48 -40 15 -46
62 -46 343 l0 257 -27 12 c-16 6 -75 12 -133 14 -83 3 -116 0 -156 -14z m161
-267 c0 -129 -4 -170 -18 -213 -40 -114 -126 -157 -181 -91 -36 42 -41 67 -41
194 0 93 4 118 23 160 41 88 82 116 167 112 l50 -2 0 -160z"/>
<path d="M2935 3061 c-76 -35 -115 -95 -115 -176 0 -87 29 -127 157 -212 87
-57 133 -103 133 -131 -1 -68 -50 -98 -142 -88 -33 4 -70 11 -81 15 -12 5 -34
11 -49 15 -28 6 -28 6 -28 -48 l0 -54 43 -17 c55 -23 211 -32 263 -15 95 31
134 89 134 198 0 58 -4 75 -26 107 -14 21 -31 43 -37 49 -19 17 -76 56 -82 56
-17 0 -118 78 -129 99 -16 30 -11 70 9 90 22 22 114 26 178 7 30 -9 58 -16 62
-16 3 0 5 26 3 58 -3 55 -4 57 -38 69 -57 19 -208 16 -255 -6z"/>
<path d="M1848 3063 c-19 -5 -32 -39 -26 -70 2 -14 16 -19 58 -24 30 -3 60 -2
67 4 15 11 14 75 -1 85 -13 7 -73 10 -98 5z"/>
<path d="M1652 3013 l3 -48 40 1 c90 3 85 0 85 49 l0 45 -66 0 -65 0 3 -47z"/>
<path d="M1650 2870 l0 -51 63 3 62 3 0 45 0 45 -62 3 -63 3 0 -51z"/>
<path d="M1824 2906 c-3 -8 -4 -29 -2 -48 l3 -33 63 -3 62 -3 0 51 0 50 -60 0
c-43 0 -62 -4 -66 -14z"/>
<path d="M3383 2029 c-43 -12 -94 -64 -121 -123 -12 -25 -26 -46 -31 -46 -5 0
-12 17 -16 37 -17 90 -66 133 -153 133 -85 0 -129 -32 -177 -128 -14 -29 -30
-50 -36 -47 -5 4 -9 33 -9 66 0 90 -8 99 -87 99 l-66 0 6 -107 c4 -58 7 -229
7 -380 l0 -274 78 3 77 3 6 190 c6 208 17 280 56 362 29 60 55 83 94 83 52 0
54 -9 59 -334 l5 -301 78 -3 77 -3 0 115 c0 317 59 526 149 526 65 -1 71 -28
71 -298 l0 -227 30 -51 c31 -55 64 -74 124 -74 67 0 76 8 76 60 0 39 -4 50
-19 55 -43 13 -46 28 -52 279 -7 253 -15 302 -58 345 -40 40 -110 56 -168 40z"/>
<path d="M4240 2026 c-75 -22 -97 -34 -140 -72 -104 -94 -146 -216 -137 -394
3 -58 13 -126 21 -151 46 -129 172 -192 281 -139 49 23 62 34 98 83 30 39 47
47 47 21 0 -31 43 -93 76 -109 37 -17 72 -19 108 -5 22 8 26 16 26 52 0 35 -5
46 -32 69 l-33 27 -6 208 c-4 115 -8 251 -8 302 -1 91 -1 93 -28 104 -44 17
-221 20 -273 4z m148 -266 c3 -135 1 -151 -24 -228 -42 -130 -104 -180 -176
-141 -71 38 -89 299 -28 418 37 74 85 101 170 98 l55 -2 3 -145z"/>
<path d="M2194 2012 l-51 -3 -6 -197 c-4 -139 -10 -214 -22 -257 -39 -137
-101 -201 -169 -175 -39 15 -56 64 -56 167 0 48 -3 172 -7 276 l-6 187 -74 0
c-69 0 -73 -1 -74 -22 -4 -116 4 -571 12 -599 29 -113 141 -173 258 -139 42
12 98 63 117 108 16 39 30 35 39 -11 15 -67 96 -117 168 -101 46 9 57 22 57
65 0 33 -4 41 -25 49 -50 19 -55 54 -55 359 0 211 -3 282 -12 287 -15 9 -26
10 -94 6z"/>
</g>
</svg>
